{
    "asset" : {
        "generator" : "Khronos glTF Blender I/O v1.7.33",
        "version" : "2.0"
    },
    "scene" : 0,
    "scenes" : [
        {
            "name" : "Scene",
            "nodes" : [
                0
            ]
        }
    ],
    "nodes" : [
        {
            "mesh" : 0,
            "name" : "pig.001"
        }
    ],
    "animations" : [
        {
            "channels" : [
                {
                    "sampler" : 0,
                    "target" : {
                        "node" : 0,
                        "path" : "weights"
                    }
                }
            ],
            "name" : "Pig3Appear",
            "samplers" : [
                {
                    "input" : 12,
                    "interpolation" : "LINEAR",
                    "output" : 13
                }
            ]
        }
    ],
    "materials" : [
        {
            "doubleSided" : true,
            "name" : "pig2",
            "pbrMetallicRoughness" : {
                "baseColorTexture" : {
                    "index" : 0
                },
                "metallicFactor" : 0,
                "roughnessFactor" : 0.5
            }
        },
        {
            "doubleSided" : true,
            "name" : "Material.006",
            "pbrMetallicRoughness" : {
                "baseColorTexture" : {
                    "index" : 1
                },
                "metallicFactor" : 0,
                "roughnessFactor" : 0.5
            }
        }
    ],
    "meshes" : [
        {
            "extras" : {
                "targetNames" : [
                    "Key 1"
                ]
            },
            "name" : "Cube.014",
            "primitives" : [
                {
                    "attributes" : {
                        "POSITION" : 0,
                        "NORMAL" : 1,
                        "TEXCOORD_0" : 2
                    },
                    "indices" : 3,
                    "material" : 0,
                    "targets" : [
                        {
                            "POSITION" : 4,
                            "NORMAL" : 5
                        }
                    ]
                },
                {
                    "attributes" : {
                        "POSITION" : 6,
                        "NORMAL" : 7,
                        "TEXCOORD_0" : 8
                    },
                    "indices" : 9,
                    "material" : 1,
                    "targets" : [
                        {
                            "POSITION" : 10,
                            "NORMAL" : 11
                        }
                    ]
                }
            ],
            "weights" : [
                1
            ]
        }
    ],
    "textures" : [
        {
            "sampler" : 0,
            "source" : 0
        },
        {
            "sampler" : 0,
            "source" : 1
        }
    ],
    "images" : [
        {
            "mimeType" : "image/png",
            "name" : "pig1",
            "uri" : "textures/pig1.png"
        },
        {
            "mimeType" : "image/png",
            "name" : "pig3objects",
            "uri" : "textures/pig3objects.png"
        }
    ],
    "accessors" : [
        {
            "bufferView" : 0,
            "componentType" : 5126,
            "count" : 370,
            "max" : [
                2.246696710586548,
                5.315309047698975,
                1.1096081733703613
            ],
            "min" : [
                -2.246696710586548,
                0.0036635398864746094,
                -0.8892822265625
            ],
            "type" : "VEC3"
        },
        {
            "bufferView" : 1,
            "componentType" : 5126,
            "count" : 370,
            "type" : "VEC3"
        },
        {
            "bufferView" : 2,
            "componentType" : 5126,
            "count" : 370,
            "type" : "VEC2"
        },
        {
            "bufferView" : 3,
            "componentType" : 5123,
            "count" : 588,
            "type" : "SCALAR"
        },
        {
            "bufferView" : 4,
            "componentType" : 5126,
            "count" : 370,
            "max" : [
                27.47254180908203,
                32.40687942504883,
                22.251800537109375
            ],
            "min" : [
                -29.181625366210938,
                -26.750770568847656,
                -26.2405948638916
            ],
            "type" : "VEC3"
        },
        {
            "bufferView" : 5,
            "componentType" : 5126,
            "count" : 370,
            "type" : "VEC3"
        },
        {
            "bufferView" : 6,
            "componentType" : 5126,
            "count" : 1445,
            "max" : [
                1.8527448177337646,
                5.8368306159973145,
                1.6574015617370605
            ],
            "min" : [
                -1.8108022212982178,
                3.731917381286621,
                -1.6003568172454834
            ],
            "type" : "VEC3"
        },
        {
            "bufferView" : 7,
            "componentType" : 5126,
            "count" : 1445,
            "type" : "VEC3"
        },
        {
            "bufferView" : 8,
            "componentType" : 5126,
            "count" : 1445,
            "type" : "VEC2"
        },
        {
            "bufferView" : 9,
            "componentType" : 5123,
            "count" : 6000,
            "type" : "SCALAR"
        },
        {
            "bufferView" : 10,
            "componentType" : 5126,
            "count" : 1445,
            "max" : [
                23.18557357788086,
                22.96380615234375,
                14.832330703735352
            ],
            "min" : [
                -91.50299072265625,
                -13.080940246582031,
                -47.409332275390625
            ],
            "type" : "VEC3"
        },
        {
            "bufferView" : 11,
            "componentType" : 5126,
            "count" : 1445,
            "type" : "VEC3"
        },
        {
            "bufferView" : 12,
            "componentType" : 5126,
            "count" : 61,
            "max" : [
                2.5
            ],
            "min" : [
                0
            ],
            "type" : "SCALAR"
        },
        {
            "bufferView" : 13,
            "componentType" : 5126,
            "count" : 61,
            "type" : "SCALAR"
        }
    ],
    "bufferViews" : [
        {
            "buffer" : 0,
            "byteLength" : 4440,
            "byteOffset" : 0
        },
        {
            "buffer" : 0,
            "byteLength" : 4440,
            "byteOffset" : 4440
        },
        {
            "buffer" : 0,
            "byteLength" : 2960,
            "byteOffset" : 8880
        },
        {
            "buffer" : 0,
            "byteLength" : 1176,
            "byteOffset" : 11840
        },
        {
            "buffer" : 0,
            "byteLength" : 4440,
            "byteOffset" : 13016
        },
        {
            "buffer" : 0,
            "byteLength" : 4440,
            "byteOffset" : 17456
        },
        {
            "buffer" : 0,
            "byteLength" : 17340,
            "byteOffset" : 21896
        },
        {
            "buffer" : 0,
            "byteLength" : 17340,
            "byteOffset" : 39236
        },
        {
            "buffer" : 0,
            "byteLength" : 11560,
            "byteOffset" : 56576
        },
        {
            "buffer" : 0,
            "byteLength" : 12000,
            "byteOffset" : 68136
        },
        {
            "buffer" : 0,
            "byteLength" : 17340,
            "byteOffset" : 80136
        },
        {
            "buffer" : 0,
            "byteLength" : 17340,
            "byteOffset" : 97476
        },
        {
            "buffer" : 0,
            "byteLength" : 244,
            "byteOffset" : 114816
        },
        {
            "buffer" : 0,
            "byteLength" : 244,
            "byteOffset" : 115060
        }
    ],
    "samplers" : [
        {
            "magFilter" : 9729,
            "minFilter" : 9987
        }
    ],
    "buffers" : [
        {
            "byteLength" : 115304,
            "uri" : "scene.bin"
        }
    ]
}
