{
    "asset" : {
        "generator" : "Khronos glTF Blender I/O v1.7.33",
        "version" : "2.0"
    },
    "scene" : 0,
    "scenes" : [
        {
            "name" : "Scene",
            "nodes" : [
                0
            ]
        }
    ],
    "nodes" : [
        {
            "mesh" : 0,
            "name" : "Cube"
        }
    ],
    "animations" : [
        {
            "channels" : [
                {
                    "sampler" : 0,
                    "target" : {
                        "node" : 0,
                        "path" : "weights"
                    }
                }
            ],
            "name" : "Pig1Appear",
            "samplers" : [
                {
                    "input" : 6,
                    "interpolation" : "LINEAR",
                    "output" : 7
                }
            ]
        }
    ],
    "materials" : [
        {
            "doubleSided" : true,
            "name" : "pig1",
            "pbrMetallicRoughness" : {
                "baseColorTexture" : {
                    "index" : 0
                },
                "metallicFactor" : 0,
                "roughnessFactor" : 0.5
            }
        }
    ],
    "meshes" : [
        {
            "extras" : {
                "targetNames" : [
                    "Decomposition"
                ]
            },
            "name" : "Cube",
            "primitives" : [
                {
                    "attributes" : {
                        "POSITION" : 0,
                        "NORMAL" : 1,
                        "TEXCOORD_0" : 2
                    },
                    "indices" : 3,
                    "material" : 0,
                    "targets" : [
                        {
                            "POSITION" : 4,
                            "NORMAL" : 5
                        }
                    ]
                }
            ],
            "weights" : [
                1
            ]
        }
    ],
    "textures" : [
        {
            "sampler" : 0,
            "source" : 0
        }
    ],
    "images" : [
        {
            "mimeType" : "image/png",
            "name" : "pig1",
            "uri" : "textures/pig1.png"
        }
    ],
    "accessors" : [
        {
            "bufferView" : 0,
            "componentType" : 5126,
            "count" : 368,
            "max" : [
                2.246696710586548,
                5.312655448913574,
                1.1096081733703613
            ],
            "min" : [
                -2.246696710586548,
                0.001009821891784668,
                -0.8892822265625
            ],
            "type" : "VEC3"
        },
        {
            "bufferView" : 1,
            "componentType" : 5126,
            "count" : 368,
            "type" : "VEC3"
        },
        {
            "bufferView" : 2,
            "componentType" : 5126,
            "count" : 368,
            "type" : "VEC2"
        },
        {
            "bufferView" : 3,
            "componentType" : 5123,
            "count" : 588,
            "type" : "SCALAR"
        },
        {
            "bufferView" : 4,
            "componentType" : 5126,
            "count" : 368,
            "max" : [
                36.62139892578125,
                34.87123489379883,
                36.38396072387695
            ],
            "min" : [
                -39.59775924682617,
                -28.598873138427734,
                -43.09660339355469
            ],
            "type" : "VEC3"
        },
        {
            "bufferView" : 5,
            "componentType" : 5126,
            "count" : 368,
            "type" : "VEC3"
        },
        {
            "bufferView" : 6,
            "componentType" : 5126,
            "count" : 61,
            "max" : [
                2.5
            ],
            "min" : [
                0
            ],
            "type" : "SCALAR"
        },
        {
            "bufferView" : 7,
            "componentType" : 5126,
            "count" : 61,
            "type" : "SCALAR"
        }
    ],
    "bufferViews" : [
        {
            "buffer" : 0,
            "byteLength" : 4416,
            "byteOffset" : 0
        },
        {
            "buffer" : 0,
            "byteLength" : 4416,
            "byteOffset" : 4416
        },
        {
            "buffer" : 0,
            "byteLength" : 2944,
            "byteOffset" : 8832
        },
        {
            "buffer" : 0,
            "byteLength" : 1176,
            "byteOffset" : 11776
        },
        {
            "buffer" : 0,
            "byteLength" : 4416,
            "byteOffset" : 12952
        },
        {
            "buffer" : 0,
            "byteLength" : 4416,
            "byteOffset" : 17368
        },
        {
            "buffer" : 0,
            "byteLength" : 244,
            "byteOffset" : 21784
        },
        {
            "buffer" : 0,
            "byteLength" : 244,
            "byteOffset" : 22028
        }
    ],
    "samplers" : [
        {
            "magFilter" : 9729,
            "minFilter" : 9987
        }
    ],
    "buffers" : [
        {
            "byteLength" : 22272,
            "uri" : "scene.bin"
        }
    ]
}
