{
    "asset" : {
        "generator" : "Khronos glTF Blender I/O v1.7.33",
        "version" : "2.0"
    },
    "scene" : 0,
    "scenes" : [
        {
            "name" : "Scene",
            "nodes" : [
                6
            ]
        }
    ],
    "nodes" : [
        {
            "name" : "Bone.001",
            "rotation" : [
                1.412538210843195e-07,
                1.405957164024585e-07,
                -0.7121553421020508,
                0.7020218968391418
            ],
            "scale" : [
                0.9999999403953552,
                0.9999999403953552,
                1
            ],
            "translation" : [
                0,
                1,
                0
            ]
        },
        {
            "name" : "Bone.003",
            "rotation" : [
                -1.6258185970637496e-16,
                8.129092323574258e-17,
                -0.7305396795272827,
                0.6828702092170715
            ],
            "scale" : [
                0.9999998807907104,
                0.9999998807907104,
                1
            ],
            "translation" : [
                0,
                0.691741943359375,
                0
            ]
        },
        {
            "children" : [
                1
            ],
            "name" : "Bone.002",
            "rotation" : [
                -3.773955725705491e-08,
                8.420946162601695e-10,
                0.0223077405244112,
                0.9997511506080627
            ],
            "translation" : [
                0,
                1,
                0
            ]
        },
        {
            "children" : [
                0,
                2
            ],
            "name" : "Bone",
            "translation" : [
                -1.1258656978607178,
                0,
                0
            ]
        },
        {
            "mesh" : 0,
            "name" : "cover",
            "skin" : 0
        },
        {
            "mesh" : 1,
            "name" : "paper",
            "skin" : 0
        },
        {
            "children" : [
                4,
                5,
                3
            ],
            "name" : "Armature",
            "scale" : [
                0.5662218332290649,
                0.5662218332290649,
                0.5662218332290649
            ],
            "translation" : [
                0.8240237832069397,
                0,
                0
            ]
        }
    ],
    "animations" : [
        {
            "channels" : [
                {
                    "sampler" : 0,
                    "target" : {
                        "node" : 3,
                        "path" : "rotation"
                    }
                },
                {
                    "sampler" : 1,
                    "target" : {
                        "node" : 0,
                        "path" : "rotation"
                    }
                },
                {
                    "sampler" : 2,
                    "target" : {
                        "node" : 2,
                        "path" : "rotation"
                    }
                },
                {
                    "sampler" : 3,
                    "target" : {
                        "node" : 1,
                        "path" : "rotation"
                    }
                }
            ],
            "name" : "BookOpen",
            "samplers" : [
                {
                    "input" : 13,
                    "interpolation" : "LINEAR",
                    "output" : 14
                },
                {
                    "input" : 13,
                    "interpolation" : "LINEAR",
                    "output" : 15
                },
                {
                    "input" : 16,
                    "interpolation" : "LINEAR",
                    "output" : 17
                },
                {
                    "input" : 16,
                    "interpolation" : "LINEAR",
                    "output" : 18
                }
            ]
        }
    ],
    "materials" : [
        {
            "doubleSided" : true,
            "name" : "Material.009",
            "pbrMetallicRoughness" : {
                "baseColorTexture" : {
                    "index" : 0
                },
                "metallicFactor" : 0,
                "roughnessFactor" : 0.5
            }
        }
    ],
    "meshes" : [
        {
            "name" : "Cube.001",
            "primitives" : [
                {
                    "attributes" : {
                        "POSITION" : 0,
                        "NORMAL" : 1,
                        "TEXCOORD_0" : 2,
                        "JOINTS_0" : 3,
                        "WEIGHTS_0" : 4
                    },
                    "indices" : 5,
                    "material" : 0
                }
            ]
        },
        {
            "name" : "Cube.004",
            "primitives" : [
                {
                    "attributes" : {
                        "POSITION" : 7,
                        "NORMAL" : 8,
                        "TEXCOORD_0" : 9,
                        "JOINTS_0" : 10,
                        "WEIGHTS_0" : 11
                    },
                    "indices" : 12,
                    "material" : 0
                }
            ]
        }
    ],
    "textures" : [
        {
            "sampler" : 0,
            "source" : 0
        }
    ],
    "images" : [
        {
            "mimeType" : "image/png",
            "name" : "book_texture",
            "uri" : "textures/book_texture.png"
        }
    ],
    "skins" : [
        {
            "inverseBindMatrices" : 6,
            "joints" : [
                3,
                0,
                2,
                1
            ],
            "name" : "Armature"
        }
    ],
    "accessors" : [
        {
            "bufferView" : 0,
            "componentType" : 5126,
            "count" : 542,
            "max" : [
                10.574054718017578,
                0.09294292330741882,
                8.047404289245605
            ],
            "min" : [
                -10.574054718017578,
                -0.37164199352264404,
                -9.000000953674316
            ],
            "type" : "VEC3"
        },
        {
            "bufferView" : 1,
            "componentType" : 5126,
            "count" : 542,
            "type" : "VEC3"
        },
        {
            "bufferView" : 2,
            "componentType" : 5126,
            "count" : 542,
            "type" : "VEC2"
        },
        {
            "bufferView" : 3,
            "componentType" : 5121,
            "count" : 542,
            "type" : "VEC4"
        },
        {
            "bufferView" : 4,
            "componentType" : 5126,
            "count" : 542,
            "type" : "VEC4"
        },
        {
            "bufferView" : 5,
            "componentType" : 5123,
            "count" : 2244,
            "type" : "SCALAR"
        },
        {
            "bufferView" : 6,
            "componentType" : 5126,
            "count" : 4,
            "type" : "MAT4"
        },
        {
            "bufferView" : 7,
            "componentType" : 5126,
            "count" : 48,
            "max" : [
                10.140633583068848,
                0.7887481451034546,
                7.531569480895996
            ],
            "min" : [
                -10.140633583068848,
                0.09715487062931061,
                -8.555750846862793
            ],
            "type" : "VEC3"
        },
        {
            "bufferView" : 8,
            "componentType" : 5126,
            "count" : 48,
            "type" : "VEC3"
        },
        {
            "bufferView" : 9,
            "componentType" : 5126,
            "count" : 48,
            "type" : "VEC2"
        },
        {
            "bufferView" : 10,
            "componentType" : 5121,
            "count" : 48,
            "type" : "VEC4"
        },
        {
            "bufferView" : 11,
            "componentType" : 5126,
            "count" : 48,
            "type" : "VEC4"
        },
        {
            "bufferView" : 12,
            "componentType" : 5123,
            "count" : 72,
            "type" : "SCALAR"
        },
        {
            "bufferView" : 13,
            "componentType" : 5126,
            "count" : 2,
            "max" : [
                2.5
            ],
            "min" : [
                0
            ],
            "type" : "SCALAR"
        },
        {
            "bufferView" : 14,
            "componentType" : 5126,
            "count" : 2,
            "type" : "VEC4"
        },
        {
            "bufferView" : 15,
            "componentType" : 5126,
            "count" : 2,
            "type" : "VEC4"
        },
        {
            "bufferView" : 16,
            "componentType" : 5126,
            "count" : 61,
            "max" : [
                2.5
            ],
            "min" : [
                0
            ],
            "type" : "SCALAR"
        },
        {
            "bufferView" : 17,
            "componentType" : 5126,
            "count" : 61,
            "type" : "VEC4"
        },
        {
            "bufferView" : 18,
            "componentType" : 5126,
            "count" : 61,
            "type" : "VEC4"
        }
    ],
    "bufferViews" : [
        {
            "buffer" : 0,
            "byteLength" : 6504,
            "byteOffset" : 0
        },
        {
            "buffer" : 0,
            "byteLength" : 6504,
            "byteOffset" : 6504
        },
        {
            "buffer" : 0,
            "byteLength" : 4336,
            "byteOffset" : 13008
        },
        {
            "buffer" : 0,
            "byteLength" : 2168,
            "byteOffset" : 17344
        },
        {
            "buffer" : 0,
            "byteLength" : 8672,
            "byteOffset" : 19512
        },
        {
            "buffer" : 0,
            "byteLength" : 4488,
            "byteOffset" : 28184
        },
        {
            "buffer" : 0,
            "byteLength" : 256,
            "byteOffset" : 32672
        },
        {
            "buffer" : 0,
            "byteLength" : 576,
            "byteOffset" : 32928
        },
        {
            "buffer" : 0,
            "byteLength" : 576,
            "byteOffset" : 33504
        },
        {
            "buffer" : 0,
            "byteLength" : 384,
            "byteOffset" : 34080
        },
        {
            "buffer" : 0,
            "byteLength" : 192,
            "byteOffset" : 34464
        },
        {
            "buffer" : 0,
            "byteLength" : 768,
            "byteOffset" : 34656
        },
        {
            "buffer" : 0,
            "byteLength" : 144,
            "byteOffset" : 35424
        },
        {
            "buffer" : 0,
            "byteLength" : 8,
            "byteOffset" : 35568
        },
        {
            "buffer" : 0,
            "byteLength" : 32,
            "byteOffset" : 35576
        },
        {
            "buffer" : 0,
            "byteLength" : 32,
            "byteOffset" : 35608
        },
        {
            "buffer" : 0,
            "byteLength" : 244,
            "byteOffset" : 35640
        },
        {
            "buffer" : 0,
            "byteLength" : 976,
            "byteOffset" : 35884
        },
        {
            "buffer" : 0,
            "byteLength" : 976,
            "byteOffset" : 36860
        }
    ],
    "samplers" : [
        {
            "magFilter" : 9729,
            "minFilter" : 9987
        }
    ],
    "buffers" : [
        {
            "byteLength" : 37836,
            "uri" : "scene.bin"
        }
    ]
}
