{
    "asset" : {
        "generator" : "Khronos glTF Blender I/O v1.7.33",
        "version" : "2.0"
    },
    "scene" : 0,
    "scenes" : [
        {
            "name" : "Scene",
            "nodes" : [
                0
            ]
        }
    ],
    "nodes" : [
        {
            "mesh" : 0,
            "name" : "skin",
            "scale" : [
                2.2762367725372314,
                2.2762367725372314,
                2.2762367725372314
            ]
        }
    ],
    "animations" : [
        {
            "channels" : [
                {
                    "sampler" : 0,
                    "target" : {
                        "node" : 0,
                        "path" : "weights"
                    }
                }
            ],
            "name" : "MomPigAppear",
            "samplers" : [
                {
                    "input" : 12,
                    "interpolation" : "LINEAR",
                    "output" : 13
                }
            ]
        },
        {
            "channels" : [
                {
                    "sampler" : 0,
                    "target" : {
                        "node" : 0,
                        "path" : "translation"
                    }
                }
            ],
            "name" : "MomPigAppearance",
            "samplers" : [
                {
                    "input" : 14,
                    "interpolation" : "STEP",
                    "output" : 15
                }
            ]
        }
    ],
    "materials" : [
        {
            "doubleSided" : true,
            "name" : "Material.002",
            "pbrMetallicRoughness" : {
                "baseColorTexture" : {
                    "index" : 0
                },
                "metallicFactor" : 0,
                "roughnessFactor" : 0.5
            }
        },
        {
            "doubleSided" : true,
            "name" : "Material.007",
            "pbrMetallicRoughness" : {
                "baseColorTexture" : {
                    "index" : 1
                },
                "metallicFactor" : 0,
                "roughnessFactor" : 0.5
            }
        }
    ],
    "meshes" : [
        {
            "extras" : {
                "targetNames" : [
                    "Decomposition"
                ]
            },
            "name" : "Cube.002",
            "primitives" : [
                {
                    "attributes" : {
                        "POSITION" : 0,
                        "NORMAL" : 1,
                        "TEXCOORD_0" : 2
                    },
                    "indices" : 3,
                    "material" : 0,
                    "targets" : [
                        {
                            "POSITION" : 4,
                            "NORMAL" : 5
                        }
                    ]
                },
                {
                    "attributes" : {
                        "POSITION" : 6,
                        "NORMAL" : 7,
                        "TEXCOORD_0" : 8
                    },
                    "indices" : 9,
                    "material" : 1,
                    "targets" : [
                        {
                            "POSITION" : 10,
                            "NORMAL" : 11
                        }
                    ]
                }
            ],
            "weights" : [
                1
            ]
        }
    ],
    "textures" : [
        {
            "sampler" : 0,
            "source" : 0
        },
        {
            "sampler" : 0,
            "source" : 1
        }
    ],
    "images" : [
        {
            "mimeType" : "image/png",
            "name" : "skin",
            "uri" : "textures/skin.png"
        },
        {
            "mimeType" : "image/png",
            "name" : "Material",
            "uri" : "textures/Material.png"
        }
    ],
    "accessors" : [
        {
            "bufferView" : 0,
            "componentType" : 5126,
            "count" : 336,
            "max" : [
                1.9009456634521484,
                4.472050666809082,
                1.007173776626587
            ],
            "min" : [
                -1.9009456634521484,
                0.0042362213134765625,
                -0.6431273818016052
            ],
            "type" : "VEC3"
        },
        {
            "bufferView" : 1,
            "componentType" : 5126,
            "count" : 336,
            "type" : "VEC3"
        },
        {
            "bufferView" : 2,
            "componentType" : 5126,
            "count" : 336,
            "type" : "VEC2"
        },
        {
            "bufferView" : 3,
            "componentType" : 5123,
            "count" : 540,
            "type" : "SCALAR"
        },
        {
            "bufferView" : 4,
            "componentType" : 5126,
            "count" : 336,
            "max" : [
                11.80347728729248,
                20.462451934814453,
                13.919805526733398
            ],
            "min" : [
                -18.264127731323242,
                -13.99219799041748,
                -9.803860664367676
            ],
            "type" : "VEC3"
        },
        {
            "bufferView" : 5,
            "componentType" : 5126,
            "count" : 336,
            "type" : "VEC3"
        },
        {
            "bufferView" : 6,
            "componentType" : 5126,
            "count" : 258,
            "max" : [
                0.9522116184234619,
                2.398728132247925,
                1.1753901243209839
            ],
            "min" : [
                -0.9662172794342041,
                0.8885180950164795,
                -0.9098760485649109
            ],
            "type" : "VEC3"
        },
        {
            "bufferView" : 7,
            "componentType" : 5126,
            "count" : 258,
            "type" : "VEC3"
        },
        {
            "bufferView" : 8,
            "componentType" : 5126,
            "count" : 258,
            "type" : "VEC2"
        },
        {
            "bufferView" : 9,
            "componentType" : 5123,
            "count" : 420,
            "type" : "SCALAR"
        },
        {
            "bufferView" : 10,
            "componentType" : 5126,
            "count" : 258,
            "max" : [
                5.8484063148498535,
                -5.487882137298584,
                4.513697624206543
            ],
            "min" : [
                -4.130162239074707,
                -7.144317626953125,
                -5.528801918029785
            ],
            "type" : "VEC3"
        },
        {
            "bufferView" : 11,
            "componentType" : 5126,
            "count" : 258,
            "type" : "VEC3"
        },
        {
            "bufferView" : 12,
            "componentType" : 5126,
            "count" : 61,
            "max" : [
                2.5
            ],
            "min" : [
                0
            ],
            "type" : "SCALAR"
        },
        {
            "bufferView" : 13,
            "componentType" : 5126,
            "count" : 61,
            "type" : "SCALAR"
        },
        {
            "bufferView" : 14,
            "componentType" : 5126,
            "count" : 1,
            "max" : [
                2.5
            ],
            "min" : [
                2.5
            ],
            "type" : "SCALAR"
        },
        {
            "bufferView" : 15,
            "componentType" : 5126,
            "count" : 1,
            "type" : "VEC3"
        }
    ],
    "bufferViews" : [
        {
            "buffer" : 0,
            "byteLength" : 4032,
            "byteOffset" : 0
        },
        {
            "buffer" : 0,
            "byteLength" : 4032,
            "byteOffset" : 4032
        },
        {
            "buffer" : 0,
            "byteLength" : 2688,
            "byteOffset" : 8064
        },
        {
            "buffer" : 0,
            "byteLength" : 1080,
            "byteOffset" : 10752
        },
        {
            "buffer" : 0,
            "byteLength" : 4032,
            "byteOffset" : 11832
        },
        {
            "buffer" : 0,
            "byteLength" : 4032,
            "byteOffset" : 15864
        },
        {
            "buffer" : 0,
            "byteLength" : 3096,
            "byteOffset" : 19896
        },
        {
            "buffer" : 0,
            "byteLength" : 3096,
            "byteOffset" : 22992
        },
        {
            "buffer" : 0,
            "byteLength" : 2064,
            "byteOffset" : 26088
        },
        {
            "buffer" : 0,
            "byteLength" : 840,
            "byteOffset" : 28152
        },
        {
            "buffer" : 0,
            "byteLength" : 3096,
            "byteOffset" : 28992
        },
        {
            "buffer" : 0,
            "byteLength" : 3096,
            "byteOffset" : 32088
        },
        {
            "buffer" : 0,
            "byteLength" : 244,
            "byteOffset" : 35184
        },
        {
            "buffer" : 0,
            "byteLength" : 244,
            "byteOffset" : 35428
        },
        {
            "buffer" : 0,
            "byteLength" : 4,
            "byteOffset" : 35672
        },
        {
            "buffer" : 0,
            "byteLength" : 12,
            "byteOffset" : 35676
        }
    ],
    "samplers" : [
        {
            "magFilter" : 9729,
            "minFilter" : 9987
        }
    ],
    "buffers" : [
        {
            "byteLength" : 35688,
            "uri" : "scene.bin"
        }
    ]
}
